<svg viewBox="0 0 1150 500" xmlns="http://www.w3.org/2000/svg" font-family="Helvetica, Arial, sans-serif">
  <defs>
    <marker id="arrow" markerWidth="10" markerHeight="10" refX="8" refY="3" orient="auto" markerUnits="strokeWidth">
      <path d="M0,0 L0,6 L9,3 z" fill="#666666"/>
    </marker>
  </defs>

  <rect width="1150" height="500" fill="#ffffff"/>

  <rect x="440" y="140" width="260" height="100" rx="8" fill="#d5e8d4" stroke="#82b366"/>
  <text x="570" y="172" text-anchor="middle" font-size="13">ARCHAEOLOGY_NOTES.md</text>
  <text x="570" y="190" text-anchor="middle" font-size="13">Design Spec Layer</text>
  <text x="570" y="208" text-anchor="middle" font-size="13">(portable, language-agnostic)</text>

  <text x="570" y="268" text-anchor="middle" font-size="11" font-style="italic" fill="#666666">same behavioral contracts, invariants, feature inventory —</text>
  <text x="570" y="282" text-anchor="middle" font-size="11" font-style="italic" fill="#666666">different implementation substrate</text>

  <rect x="40" y="380" width="160" height="80" rx="8" fill="#e1d5e7" stroke="#9673a6"/>
  <text x="120" y="425" text-anchor="middle" font-size="13">PowerShell</text>

  <rect x="220" y="380" width="160" height="80" rx="8" fill="#e1d5e7" stroke="#9673a6"/>
  <text x="300" y="425" text-anchor="middle" font-size="13">Rust</text>

  <rect x="400" y="380" width="160" height="80" rx="8" fill="#e1d5e7" stroke="#9673a6"/>
  <text x="480" y="425" text-anchor="middle" font-size="13">Pascal</text>

  <rect x="580" y="380" width="160" height="80" rx="8" fill="#e1d5e7" stroke="#9673a6"/>
  <text x="660" y="425" text-anchor="middle" font-size="13">C</text>

  <rect x="760" y="380" width="160" height="80" rx="8" fill="#e1d5e7" stroke="#9673a6"/>
  <text x="840" y="425" text-anchor="middle" font-size="13">Lisp</text>

  <rect x="940" y="380" width="160" height="80" rx="8" fill="#e1d5e7" stroke="#9673a6"/>
  <text x="1020" y="418" text-anchor="middle" font-size="13">Modern target</text>
  <text x="1020" y="434" text-anchor="middle" font-size="13">(e.g. Go, Zig...)</text>

  <line x1="500" y1="240" x2="140" y2="378" stroke="#666666" stroke-width="1.5" marker-end="url(#arrow)"/>
  <line x1="540" y1="240" x2="310" y2="378" stroke="#666666" stroke-width="1.5" marker-end="url(#arrow)"/>
  <line x1="565" y1="240" x2="485" y2="378" stroke="#666666" stroke-width="1.5" marker-end="url(#arrow)"/>
  <line x1="590" y1="240" x2="655" y2="378" stroke="#666666" stroke-width="1.5" marker-end="url(#arrow)"/>
  <line x1="620" y1="240" x2="825" y2="378" stroke="#666666" stroke-width="1.5" marker-end="url(#arrow)"/>
  <line x1="650" y1="240" x2="1000" y2="378" stroke="#666666" stroke-width="1.5" marker-end="url(#arrow)"/>

</svg>
